<svg xmlns="http://www.w3.org/2000/svg" xmlns:xlink="http://www.w3.org/1999/xlink" width="797" zoomAndPan="magnify" viewBox="0 0 597.75 116.999995" height="156" preserveAspectRatio="xMidYMid meet" version="1.0"><defs><g/><clipPath id="813c009dda"><path d="M 0 9 L 597.5 9 L 597.5 108 L 0 108 Z M 0 9 " clip-rule="nonzero"/></clipPath><clipPath id="67e2cbafef"><rect x="0" width="598" y="0" height="99"/></clipPath></defs><g clip-path="url(#813c009dda)"><g transform="matrix(1, 0, 0, 1, 0, 9)"><g clip-path="url(#67e2cbafef)"><g fill="#ffffff" fill-opacity="1"><g transform="translate(0.128398, 76.692967)"><g><path d="M 50.8125 0 L 50.8125 -42 L 17.203125 -42 L 17.203125 -33.609375 L 8.8125 -33.609375 L 8.8125 0 L 17.203125 0 L 17.203125 -33.609375 L 42.421875 -33.609375 L 42.421875 0 Z M 50.8125 0 "/></g></g></g><g fill="#ffffff" fill-opacity="1"><g transform="translate(60.516605, 76.692967)"><g><path d="M 42.515625 -33.609375 L 42.515625 -42 L 8.90625 -42 L 8.90625 -8.390625 L 17.296875 -8.390625 L 17.296875 -33.609375 L 42.515625 -33.609375 L 42.515625 -8.390625 L 17.296875 -8.390625 L 17.296875 0 L 50.90625 0 L 50.90625 -33.609375 Z M 42.515625 -33.609375 "/></g></g></g><g fill="#ffffff" fill-opacity="1"><g transform="translate(119.713252, 76.692967)"><g><path d="M 5.765625 -33.515625 L 14.15625 -33.515625 L 14.15625 0 L 39.375 0 L 39.375 -8.390625 L 22.546875 -8.390625 L 22.546875 -33.515625 L 14.15625 -33.515625 L 14.15625 -41.90625 L 5.765625 -41.90625 Z M 22.546875 -33.515625 L 22.546875 -41.90625 L 39.375 -41.90625 L 39.375 -33.515625 Z M 22.546875 -33.515625 "/></g></g></g><g fill="#ffffff" fill-opacity="1"><g transform="translate(163.800932, 76.692967)"><g/></g></g><g fill="#ffffff" fill-opacity="1"><g transform="translate(188.013409, 76.692967)"><g><path d="M 49.90625 0 L 16.296875 0 L 16.296875 -8.390625 L 41.515625 -8.390625 L 41.515625 -16.828125 L 16.296875 -16.828125 L 16.296875 -8.484375 L 7.90625 -8.484375 L 7.90625 -25.265625 L 41.515625 -25.265625 L 41.515625 -33.609375 L 7.90625 -33.609375 L 7.90625 -42 L 41.515625 -42 L 41.515625 -33.609375 L 49.90625 -33.609375 Z M 49.90625 0 "/></g></g></g><g fill="#ffffff" fill-opacity="1"><g transform="translate(246.209148, 76.692967)"><g><path d="M 5.765625 -33.515625 L 14.15625 -33.515625 L 14.15625 0 L 39.375 0 L 39.375 -8.390625 L 22.546875 -8.390625 L 22.546875 -33.515625 L 14.15625 -33.515625 L 14.15625 -41.90625 L 5.765625 -41.90625 Z M 22.546875 -33.515625 L 22.546875 -41.90625 L 39.375 -41.90625 L 39.375 -33.515625 Z M 22.546875 -33.515625 "/></g></g></g><g fill="#ffffff" fill-opacity="1"><g transform="translate(290.296828, 76.692967)"><g><path d="M 18.640625 -42 L 18.640625 -67.265625 L 10.25 -67.265625 L 10.25 0 L 18.640625 0 L 18.640625 -33.609375 L 43.859375 -33.609375 L 43.859375 -42 Z M 43.859375 -0.09375 L 43.859375 -33.609375 L 52.25 -33.609375 L 52.25 -0.09375 Z M 43.859375 -0.09375 "/></g></g></g><g fill="#ffffff" fill-opacity="1"><g transform="translate(350.828021, 76.692967)"><g><path d="M 9.765625 -67.265625 L 9.765625 0 L 18.15625 0 L 18.15625 -67.265625 Z M 9.765625 -67.265625 "/></g></g></g><g fill="#ffffff" fill-opacity="1"><g transform="translate(378.758163, 76.692967)"><g><path d="M 8.90625 -42 L 42.515625 -42 L 42.515625 -33.609375 L 17.296875 -33.609375 L 17.296875 -25.171875 L 42.515625 -25.171875 L 42.515625 -33.515625 L 50.90625 -33.515625 L 50.90625 -16.734375 L 17.296875 -16.734375 L 17.296875 -8.390625 L 50.90625 -8.390625 L 50.90625 0 L 17.296875 0 L 17.296875 -8.390625 L 8.90625 -8.390625 Z M 8.90625 -42 "/></g></g></g><g fill="#ffffff" fill-opacity="1"><g transform="translate(437.144551, 76.692967)"><g><path d="M 5.765625 -33.515625 L 14.15625 -33.515625 L 14.15625 0 L 39.375 0 L 39.375 -8.390625 L 22.546875 -8.390625 L 22.546875 -33.515625 L 14.15625 -33.515625 L 14.15625 -41.90625 L 5.765625 -41.90625 Z M 22.546875 -33.515625 L 22.546875 -41.90625 L 39.375 -41.90625 L 39.375 -33.515625 Z M 22.546875 -33.515625 "/></g></g></g><g fill="#ffffff" fill-opacity="1"><g transform="translate(481.232231, 76.692967)"><g><path d="M 8.90625 -42 L 42.515625 -42 L 42.515625 -33.609375 L 17.296875 -33.609375 L 17.296875 -25.171875 L 42.515625 -25.171875 L 42.515625 -33.515625 L 50.90625 -33.515625 L 50.90625 -16.734375 L 17.296875 -16.734375 L 17.296875 -8.390625 L 50.90625 -8.390625 L 50.90625 0 L 17.296875 0 L 17.296875 -8.390625 L 8.90625 -8.390625 Z M 8.90625 -42 "/></g></g></g><g fill="#ffffff" fill-opacity="1"><g transform="translate(539.618619, 76.692967)"><g><path d="M 41.5625 -16.828125 L 41.5625 -8.390625 L 7.953125 -8.390625 L 7.953125 0 L 41.5625 0 L 41.5625 -8.390625 L 49.953125 -8.390625 L 49.953125 -25.265625 L 16.34375 -25.265625 L 16.34375 -16.828125 Z M 16.34375 -33.609375 L 49.953125 -33.609375 L 49.953125 -42 L 7.953125 -42 L 7.953125 -25.265625 L 16.34375 -25.265625 Z M 16.34375 -33.609375 "/></g></g></g></g></g></g></svg>